# xmcd
#
# Track frame offsets: 
#        150
#        17383
#        34010
#        48905
#        64698
#        80383
#        91640
#        105040
#        126823
#        144045
#
# Disc length: 2134 seconds
#
# Revision: 4
# Processed by: cddbd v1.5.2PL0 Copyright (c) Steve Scherf et al.
# Submitted via: ExactAudioCopy v0.99pb4
#
DISCID=6108540a
DTITLE=Various Artist - Billboard Top R&B Hits - 1972
DYEAR=1990
DGENRE=R&B
TTITLE0=Bill Withers - Lean On Me
TTITLE1=Al Green - Let's Stay Together
TTITLE2=Staple Singers - I'll Take You There
TTITLE3=Chi-Lites - Oh Girl
TTITLE4=Harold Melvin And The Blue Notes - If You Don't Know Me By Now
TTITLE5=Joe Tex - I Gotcha
TTITLE6=Joe Simon - Power Of Love
TTITLE7=Billy Paul - Me And Mrs. Jones
TTITLE8=Curtis Mayfield - Freddie's Dead (Theme From Superfly)
TTITLE9=James Brown - Get On The Good Foot
EXTD=
EXTT0=
EXTT1=
EXTT2=
EXTT3=
EXTT4=
EXTT5=
EXTT6=
EXTT7=
EXTT8=
EXTT9=
PLAYORDER=
